# xmcd
#
# Track frame offsets: 
#        150
#        21275
#        39498
#        57684
#        76007
#        92134
#        111532
#        131979
#        150990
#        167220
#        184452
#        202618
#        220663
#        244203
#
# Disc length: 4348 seconds
#
# Revision: 0
# Processed by: cddbd v1.5.2PL0 Copyright (c) Steve Scherf et al.
# Submitted via: ExactAudioCopyFreeDBPlugin 1.0
#
DISCID=c210fa0e
DTITLE=Joss Stone - Mind Body and Soul
DYEAR=1900
DGENRE=
TTITLE0=Right To Be Wrong
TTITLE1=Jet Lag
TTITLE2=You Had Me
TTITLE3=Spoiled
TTITLE4=Don`t Cha Wanna Ride
TTITLE5=Less Is More
TTITLE6=Security
TTITLE7=Young Fit Heart
TTITLE8=Snakes Find Heart
TTITLE9=Understand
TTITLE10=Don`t Know How
TTITLE11=Torn And Tattered
TTITLE12=Killing Time
TTITLE13=Sleep Like A Child
EXTD=
EXTT0=
EXTT1=
EXTT2=
EXTT3=
EXTT4=
EXTT5=
EXTT6=
EXTT7=
EXTT8=
EXTT9=
EXTT10=
EXTT11=
EXTT12=
EXTT13=
PLAYORDER=
